<svg width="334" height="22" viewBox="0 0 334 22" fill="none" xmlns="http://www.w3.org/2000/svg">
<path d="M37.7753 7.3895C37.7223 6.91886 37.5035 6.55428 37.1191 6.29575C36.7346 6.03392 36.2507 5.903 35.6674 5.903C35.2497 5.903 34.8885 5.96929 34.5836 6.10186C34.2786 6.23112 34.0416 6.4101 33.8726 6.63879C33.7069 6.86417 33.624 7.12104 33.624 7.40939C33.624 7.65134 33.6804 7.86015 33.7931 8.03581C33.9091 8.21147 34.0599 8.35896 34.2455 8.47828C34.4344 8.59429 34.6366 8.69206 34.852 8.77161C35.0675 8.84784 35.2746 8.91081 35.4735 8.96053L36.4678 9.21905C36.7926 9.29859 37.1257 9.40631 37.4671 9.5422C37.8085 9.67809 38.125 9.85707 38.4166 10.0791C38.7083 10.3012 38.9436 10.5763 39.1226 10.9044C39.3049 11.2325 39.3961 11.6253 39.3961 12.0827C39.3961 12.6594 39.2469 13.1715 38.9486 13.6189C38.6536 14.0664 38.2244 14.4193 37.661 14.6779C37.1008 14.9364 36.423 15.0656 35.6276 15.0656C34.8653 15.0656 34.2057 14.9447 33.6489 14.7027C33.0921 14.4608 32.6562 14.1177 32.3414 13.6736C32.0265 13.2262 31.8525 12.6958 31.8193 12.0827H33.3605C33.3904 12.4506 33.5097 12.7572 33.7185 13.0024C33.9306 13.2444 34.2007 13.425 34.5289 13.5443C34.8603 13.6603 35.2232 13.7183 35.6176 13.7183C36.0518 13.7183 36.438 13.6504 36.776 13.5145C37.1174 13.3753 37.3859 13.1831 37.5814 12.9378C37.777 12.6892 37.8747 12.3992 37.8747 12.0678C37.8747 11.7662 37.7886 11.5192 37.6162 11.327C37.4472 11.1348 37.2168 10.9757 36.9252 10.8497C36.6368 10.7238 36.3104 10.6128 35.9458 10.5166L34.7426 10.1885C33.9273 9.96645 33.281 9.63998 32.8037 9.20911C32.3298 8.77824 32.0928 8.20816 32.0928 7.49888C32.0928 6.91223 32.2519 6.40016 32.5701 5.96266C32.8882 5.52516 33.3191 5.18543 33.8627 4.94348C34.4062 4.69822 35.0194 4.57558 35.7022 4.57558C36.3916 4.57558 36.9997 4.69656 37.5267 4.93851C38.057 5.18046 38.4747 5.51356 38.7796 5.9378C39.0845 6.35873 39.2436 6.84263 39.2568 7.3895H37.7753ZM44.4037 15.0507C43.6513 15.0507 43.0034 14.89 42.4598 14.5685C41.9195 14.2437 41.5019 13.7879 41.207 13.2013C40.9153 12.6113 40.7695 11.9203 40.7695 11.1281C40.7695 10.3459 40.9153 9.65655 41.207 9.05996C41.5019 8.46337 41.9129 7.9977 42.4399 7.66294C42.9702 7.32819 43.59 7.16081 44.2993 7.16081C44.7302 7.16081 45.1478 7.23207 45.5521 7.37459C45.9565 7.51711 46.3194 7.74083 46.6409 8.04575C46.9624 8.35068 47.216 8.74675 47.4016 9.23396C47.5872 9.71787 47.68 10.3062 47.68 10.9989V11.5259H41.6097V10.4122H46.2233C46.2233 10.0211 46.1437 9.67478 45.9847 9.37317C45.8256 9.06824 45.6018 8.82795 45.3135 8.65229C45.0285 8.47663 44.6937 8.38879 44.3092 8.38879C43.8916 8.38879 43.527 8.49154 43.2155 8.69703C42.9072 8.89921 42.6686 9.16436 42.4996 9.49249C42.3338 9.8173 42.251 10.1703 42.251 10.5514V11.4215C42.251 11.9319 42.3405 12.3661 42.5195 12.724C42.7017 13.082 42.9553 13.3554 43.2801 13.5443C43.6049 13.7299 43.9844 13.8227 44.4186 13.8227C44.7003 13.8227 44.9572 13.783 45.1892 13.7034C45.4212 13.6206 45.6217 13.4979 45.7908 13.3355C45.9598 13.1731 46.0891 12.9726 46.1785 12.734L47.5855 12.9875C47.4728 13.4018 47.2706 13.7647 46.979 14.0763C46.6906 14.3845 46.3277 14.6248 45.8902 14.7972C45.456 14.9662 44.9605 15.0507 44.4037 15.0507ZM50.8158 4.71479V14.8966H49.3293V4.71479H50.8158ZM56.1068 15.0507C55.3544 15.0507 54.7065 14.89 54.1629 14.5685C53.6227 14.2437 53.2051 13.7879 52.9101 13.2013C52.6184 12.6113 52.4726 11.9203 52.4726 11.1281C52.4726 10.3459 52.6184 9.65655 52.9101 9.05996C53.2051 8.46337 53.616 7.9977 54.143 7.66294C54.6733 7.32819 55.2931 7.16081 56.0024 7.16081C56.4333 7.16081 56.8509 7.23207 57.2553 7.37459C57.6596 7.51711 58.0225 7.74083 58.344 8.04575C58.6655 8.35068 58.9191 8.74675 59.1047 9.23396C59.2903 9.71787 59.3831 10.3062 59.3831 10.9989V11.5259H53.3128V10.4122H57.9264C57.9264 10.0211 57.8469 9.67478 57.6878 9.37317C57.5287 9.06824 57.305 8.82795 57.0166 8.65229C56.7316 8.47663 56.3968 8.38879 56.0124 8.38879C55.5947 8.38879 55.2302 8.49154 54.9186 8.69703C54.6104 8.89921 54.3717 9.16436 54.2027 9.49249C54.037 9.8173 53.9541 10.1703 53.9541 10.5514V11.4215C53.9541 11.9319 54.0436 12.3661 54.2226 12.724C54.4049 13.082 54.6584 13.3554 54.9832 13.5443C55.308 13.7299 55.6875 13.8227 56.1217 13.8227C56.4035 13.8227 56.6603 13.783 56.8923 13.7034C57.1243 13.6206 57.3249 13.4979 57.4939 13.3355C57.6629 13.1731 57.7922 12.9726 57.8817 12.734L59.2886 12.9875C59.1759 13.4018 58.9738 13.7647 58.6821 14.0763C58.3937 14.3845 58.0308 14.6248 57.5933 14.7972C57.1591 14.9662 56.6636 15.0507 56.1068 15.0507ZM64.249 15.0507C63.5099 15.0507 62.8736 14.8833 62.3399 14.5486C61.8096 14.2105 61.402 13.7449 61.1169 13.1516C60.8319 12.5583 60.6894 11.8789 60.6894 11.1132C60.6894 10.3377 60.8352 9.65323 61.1269 9.05996C61.4185 8.46337 61.8295 7.9977 62.3598 7.66294C62.8901 7.32819 63.5149 7.16081 64.2341 7.16081C64.8141 7.16081 65.3312 7.26853 65.7853 7.48396C66.2393 7.69609 66.6056 7.99438 66.884 8.37885C67.1657 8.76332 67.3331 9.21242 67.3861 9.72615H65.9394C65.8598 9.3682 65.6775 9.05996 65.3925 8.80144C65.1108 8.54291 64.7329 8.41365 64.259 8.41365C63.8447 8.41365 63.4818 8.52303 63.1702 8.74178C62.862 8.95721 62.6217 9.26545 62.4493 9.66649C62.277 10.0642 62.1908 10.5349 62.1908 11.0784C62.1908 11.6352 62.2753 12.1158 62.4443 12.5202C62.6134 12.9245 62.852 13.2378 63.1603 13.4598C63.4718 13.6819 63.8381 13.7929 64.259 13.7929C64.5407 13.7929 64.7959 13.7415 65.0246 13.6388C65.2566 13.5327 65.4505 13.3819 65.6063 13.1864C65.7654 12.9908 65.8764 12.7555 65.9394 12.4804H67.3861C67.3331 12.9743 67.1723 13.4151 66.9039 13.8029C66.6354 14.1906 66.2758 14.4956 65.825 14.7176C65.3776 14.9397 64.8523 15.0507 64.249 15.0507ZM72.5404 7.26024V8.45342H68.3692V7.26024H72.5404ZM69.4878 5.4307H70.9744V12.6544C70.9744 12.9428 71.0174 13.1599 71.1036 13.3057C71.1898 13.4482 71.3008 13.546 71.4367 13.599C71.5759 13.6487 71.7267 13.6736 71.8891 13.6736C72.0084 13.6736 72.1128 13.6653 72.2023 13.6487C72.2918 13.6322 72.3614 13.6189 72.4111 13.609L72.6796 14.8369C72.5934 14.8701 72.4708 14.9032 72.3117 14.9364C72.1526 14.9728 71.9538 14.9927 71.7151 14.996C71.324 15.0027 70.9594 14.9331 70.6214 14.7872C70.2833 14.6414 70.0099 14.416 69.8011 14.1111C69.5923 13.8062 69.4878 13.4234 69.4878 12.9627V5.4307ZM77.3939 15.0507C76.6416 15.0507 75.9936 14.89 75.45 14.5685C74.9098 14.2437 74.4922 13.7879 74.1972 13.2013C73.9055 12.6113 73.7597 11.9203 73.7597 11.1281C73.7597 10.3459 73.9055 9.65655 74.1972 9.05996C74.4922 8.46337 74.9032 7.9977 75.4301 7.66294C75.9604 7.32819 76.5802 7.16081 77.2895 7.16081C77.7204 7.16081 78.138 7.23207 78.5424 7.37459C78.9467 7.51711 79.3096 7.74083 79.6311 8.04575C79.9526 8.35068 80.2062 8.74675 80.3918 9.23396C80.5774 9.71787 80.6702 10.3062 80.6702 10.9989V11.5259H74.5999V10.4122H79.2135C79.2135 10.0211 79.134 9.67478 78.9749 9.37317C78.8158 9.06824 78.5921 8.82795 78.3037 8.65229C78.0187 8.47663 77.6839 8.38879 77.2995 8.38879C76.8818 8.38879 76.5173 8.49154 76.2057 8.69703C75.8975 8.89921 75.6588 9.16436 75.4898 9.49249C75.3241 9.8173 75.2412 10.1703 75.2412 10.5514V11.4215C75.2412 11.9319 75.3307 12.3661 75.5097 12.724C75.692 13.082 75.9455 13.3554 76.2703 13.5443C76.5952 13.7299 76.9747 13.8227 77.4088 13.8227C77.6906 13.8227 77.9474 13.783 78.1794 13.7034C78.4114 13.6206 78.612 13.4979 78.781 13.3355C78.95 13.1731 79.0793 12.9726 79.1688 12.734L80.5757 12.9875C80.4631 13.4018 80.2609 13.7647 79.9692 14.0763C79.6809 14.3845 79.3179 14.6248 78.8804 14.7972C78.4462 14.9662 77.9507 15.0507 77.3939 15.0507ZM85.1782 15.0458C84.5617 15.0458 84.0115 14.8883 83.5276 14.5735C83.047 14.2553 82.6692 13.8029 82.3941 13.2162C82.1223 12.6262 81.9864 11.9186 81.9864 11.0933C81.9864 10.2681 82.124 9.56209 82.3991 8.97544C82.6775 8.38879 83.0586 7.93969 83.5425 7.62814C84.0264 7.31659 84.575 7.16081 85.1881 7.16081C85.6621 7.16081 86.0432 7.24036 86.3316 7.39945C86.6233 7.55522 86.8486 7.73752 87.0077 7.94632C87.1701 8.15513 87.2961 8.33908 87.3856 8.49817H87.4751V4.71479H88.9616V14.8966H87.5099V13.7084H87.3856C87.2961 13.8708 87.1668 14.0564 86.9978 14.2652C86.8321 14.474 86.6034 14.6563 86.3117 14.8121C86.02 14.9679 85.6422 15.0458 85.1782 15.0458ZM85.5063 13.778C85.9339 13.778 86.2951 13.6653 86.5901 13.4399C86.8884 13.2112 87.1138 12.8947 87.2663 12.4904C87.422 12.086 87.4999 11.6154 87.4999 11.0784C87.4999 10.5481 87.4237 10.0841 87.2712 9.68638C87.1188 9.28865 86.895 8.97876 86.6001 8.75669C86.3051 8.53463 85.9405 8.42359 85.5063 8.42359C85.0589 8.42359 84.686 8.5396 84.3877 8.77161C84.0894 9.00361 83.864 9.32014 83.7116 9.72118C83.5624 10.1222 83.4878 10.5746 83.4878 11.0784C83.4878 11.5888 83.5641 12.0479 83.7165 12.4556C83.869 12.8632 84.0944 13.1864 84.3927 13.425C84.6943 13.6603 85.0655 13.778 85.5063 13.778Z" fill="black"/>
<circle cx="11.1724" cy="11.4482" r="10.5517" fill="#FDC350"/>
<path d="M148.291 14.8966V4.71479H151.92C152.709 4.71479 153.364 4.85068 153.884 5.12246C154.408 5.39424 154.799 5.77042 155.057 6.25101C155.316 6.72828 155.445 7.28013 155.445 7.90655C155.445 8.52966 155.314 9.07819 155.052 9.55215C154.794 10.0228 154.403 10.389 153.879 10.6509C153.359 10.9127 152.704 11.0436 151.915 11.0436H149.166V9.72118H151.776C152.273 9.72118 152.678 9.64992 152.989 9.5074C153.304 9.36488 153.534 9.15773 153.68 8.88595C153.826 8.61417 153.899 8.2877 153.899 7.90655C153.899 7.52208 153.824 7.18898 153.675 6.90726C153.529 6.62554 153.299 6.4101 152.984 6.26095C152.673 6.10849 152.263 6.03226 151.756 6.03226H149.827V14.8966H148.291ZM153.317 10.3029L155.833 14.8966H154.083L151.617 10.3029H153.317ZM160.391 15.0507C159.638 15.0507 158.99 14.89 158.447 14.5685C157.906 14.2437 157.489 13.7879 157.194 13.2013C156.902 12.6113 156.756 11.9203 156.756 11.1281C156.756 10.3459 156.902 9.65655 157.194 9.05996C157.489 8.46337 157.9 7.9977 158.427 7.66294C158.957 7.32819 159.577 7.16081 160.286 7.16081C160.717 7.16081 161.135 7.23207 161.539 7.37459C161.943 7.51711 162.306 7.74083 162.628 8.04575C162.949 8.35068 163.203 8.74675 163.388 9.23396C163.574 9.71787 163.667 10.3062 163.667 10.9989V11.5259H157.597V10.4122H162.21C162.21 10.0211 162.131 9.67478 161.972 9.37317C161.812 9.06824 161.589 8.82795 161.3 8.65229C161.015 8.47663 160.681 8.38879 160.296 8.38879C159.879 8.38879 159.514 8.49154 159.202 8.69703C158.894 8.89921 158.656 9.16436 158.487 9.49249C158.321 9.8173 158.238 10.1703 158.238 10.5514V11.4215C158.238 11.9319 158.327 12.3661 158.506 12.724C158.689 13.082 158.942 13.3554 159.267 13.5443C159.592 13.7299 159.971 13.8227 160.406 13.8227C160.687 13.8227 160.944 13.783 161.176 13.7034C161.408 13.6206 161.609 13.4979 161.778 13.3355C161.947 13.1731 162.076 12.9726 162.165 12.734L163.572 12.9875C163.46 13.4018 163.258 13.7647 162.966 14.0763C162.678 14.3845 162.315 14.6248 161.877 14.7972C161.443 14.9662 160.947 15.0507 160.391 15.0507ZM171.039 9.12459L169.691 9.36323C169.635 9.19088 169.545 9.02681 169.423 8.87104C169.303 8.71526 169.141 8.58766 168.936 8.48823C168.73 8.38879 168.473 8.33908 168.165 8.33908C167.744 8.33908 167.393 8.43354 167.111 8.62246C166.829 8.80806 166.688 9.04836 166.688 9.34334C166.688 9.59855 166.783 9.80404 166.972 9.95982C167.161 10.1156 167.466 10.2432 167.887 10.3426L169.1 10.621C169.802 10.7834 170.326 11.0337 170.671 11.3717C171.015 11.7098 171.188 12.149 171.188 12.6892C171.188 13.1466 171.055 13.5543 170.79 13.9122C170.528 14.2669 170.162 14.5453 169.691 14.7475C169.224 14.9496 168.682 15.0507 168.066 15.0507C167.21 15.0507 166.513 14.8684 165.972 14.5039C165.432 14.136 165.101 13.6139 164.978 12.9378L166.415 12.719C166.504 13.0936 166.688 13.377 166.967 13.5692C167.245 13.7581 167.608 13.8526 168.056 13.8526C168.543 13.8526 168.932 13.7515 169.224 13.5493C169.516 13.3438 169.661 13.0936 169.661 12.7986C169.661 12.56 169.572 12.3594 169.393 12.197C169.217 12.0346 168.947 11.912 168.583 11.8291L167.29 11.5458C166.577 11.3833 166.05 11.1248 165.709 10.7702C165.371 10.4155 165.202 9.96645 165.202 9.42288C165.202 8.97213 165.328 8.57771 165.58 8.23965C165.832 7.90158 166.18 7.63808 166.624 7.44916C167.068 7.25693 167.577 7.16081 168.15 7.16081C168.975 7.16081 169.625 7.33979 170.099 7.69774C170.573 8.05238 170.886 8.528 171.039 9.12459ZM176.113 15.0507C175.361 15.0507 174.713 14.89 174.169 14.5685C173.629 14.2437 173.212 13.7879 172.917 13.2013C172.625 12.6113 172.479 11.9203 172.479 11.1281C172.479 10.3459 172.625 9.65655 172.917 9.05996C173.212 8.46337 173.623 7.9977 174.15 7.66294C174.68 7.32819 175.3 7.16081 176.009 7.16081C176.44 7.16081 176.857 7.23207 177.262 7.37459C177.666 7.51711 178.029 7.74083 178.35 8.04575C178.672 8.35068 178.926 8.74675 179.111 9.23396C179.297 9.71787 179.39 10.3062 179.39 10.9989V11.5259H173.319V10.4122H177.933C177.933 10.0211 177.853 9.67478 177.694 9.37317C177.535 9.06824 177.311 8.82795 177.023 8.65229C176.738 8.47663 176.403 8.38879 176.019 8.38879C175.601 8.38879 175.237 8.49154 174.925 8.69703C174.617 8.89921 174.378 9.16436 174.209 9.49249C174.043 9.8173 173.961 10.1703 173.961 10.5514V11.4215C173.961 11.9319 174.05 12.3661 174.229 12.724C174.411 13.082 174.665 13.3554 174.99 13.5443C175.315 13.7299 175.694 13.8227 176.128 13.8227C176.41 13.8227 176.667 13.783 176.899 13.7034C177.131 13.6206 177.331 13.4979 177.5 13.3355C177.669 13.1731 177.799 12.9726 177.888 12.734L179.295 12.9875C179.182 13.4018 178.98 13.7647 178.689 14.0763C178.4 14.3845 178.037 14.6248 177.6 14.7972C177.166 14.9662 176.67 15.0507 176.113 15.0507ZM181.039 14.8966V7.26024H182.476V8.47331H182.555C182.694 8.06233 182.94 7.73917 183.291 7.50385C183.646 7.26521 184.047 7.1459 184.494 7.1459C184.587 7.1459 184.696 7.14921 184.822 7.15584C184.952 7.16247 185.053 7.17075 185.126 7.1807V8.60257C185.066 8.586 184.96 8.56777 184.807 8.54788C184.655 8.52468 184.502 8.51308 184.35 8.51308C183.999 8.51308 183.685 8.58766 183.41 8.73681C183.139 8.88264 182.923 9.08647 182.764 9.34831C182.605 9.60683 182.525 9.90181 182.525 10.2333V14.8966H181.039ZM193.177 7.26024L190.408 14.8966H188.817L186.043 7.26024H187.639L189.573 13.1367H189.652L191.581 7.26024H193.177ZM197.605 15.0507C196.853 15.0507 196.205 14.89 195.662 14.5685C195.121 14.2437 194.704 13.7879 194.409 13.2013C194.117 12.6113 193.971 11.9203 193.971 11.1281C193.971 10.3459 194.117 9.65655 194.409 9.05996C194.704 8.46337 195.115 7.9977 195.642 7.66294C196.172 7.32819 196.792 7.16081 197.501 7.16081C197.932 7.16081 198.35 7.23207 198.754 7.37459C199.158 7.51711 199.521 7.74083 199.843 8.04575C200.164 8.35068 200.418 8.74675 200.603 9.23396C200.789 9.71787 200.882 10.3062 200.882 10.9989V11.5259H194.811V10.4122H199.425C199.425 10.0211 199.346 9.67478 199.186 9.37317C199.027 9.06824 198.804 8.82795 198.515 8.65229C198.23 8.47663 197.895 8.38879 197.511 8.38879C197.093 8.38879 196.729 8.49154 196.417 8.69703C196.109 8.89921 195.87 9.16436 195.701 9.49249C195.536 9.8173 195.453 10.1703 195.453 10.5514V11.4215C195.453 11.9319 195.542 12.3661 195.721 12.724C195.904 13.082 196.157 13.3554 196.482 13.5443C196.807 13.7299 197.186 13.8227 197.62 13.8227C197.902 13.8227 198.159 13.783 198.391 13.7034C198.623 13.6206 198.824 13.4979 198.993 13.3355C199.162 13.1731 199.291 12.9726 199.38 12.734L200.787 12.9875C200.675 13.4018 200.472 13.7647 200.181 14.0763C199.892 14.3845 199.529 14.6248 199.092 14.7972C198.658 14.9662 198.162 15.0507 197.605 15.0507ZM205.39 15.0458C204.773 15.0458 204.223 14.8883 203.739 14.5735C203.259 14.2553 202.881 13.8029 202.606 13.2162C202.334 12.6262 202.198 11.9186 202.198 11.0933C202.198 10.2681 202.336 9.56209 202.611 8.97544C202.889 8.38879 203.27 7.93969 203.754 7.62814C204.238 7.31659 204.787 7.16081 205.4 7.16081C205.874 7.16081 206.255 7.24036 206.543 7.39945C206.835 7.55522 207.06 7.73752 207.219 7.94632C207.382 8.15513 207.508 8.33908 207.597 8.49817H207.687V4.71479H209.173V14.8966H207.721V13.7084H207.597C207.508 13.8708 207.378 14.0564 207.209 14.2652C207.044 14.474 206.815 14.6563 206.523 14.8121C206.232 14.9679 205.854 15.0458 205.39 15.0458ZM205.718 13.778C206.145 13.778 206.507 13.6653 206.802 13.4399C207.1 13.2112 207.325 12.8947 207.478 12.4904C207.634 12.086 207.711 11.6154 207.711 11.0784C207.711 10.5481 207.635 10.0841 207.483 9.68638C207.33 9.28865 207.107 8.97876 206.812 8.75669C206.517 8.53463 206.152 8.42359 205.718 8.42359C205.27 8.42359 204.898 8.5396 204.599 8.77161C204.301 9.00361 204.076 9.32014 203.923 9.72118C203.774 10.1222 203.699 10.5746 203.699 11.0784C203.699 11.5888 203.776 12.0479 203.928 12.4556C204.081 12.8632 204.306 13.1864 204.604 13.425C204.906 13.6603 205.277 13.778 205.718 13.778Z" fill="black"/>
<circle cx="127.241" cy="11.4483" r="10.5517" fill="#B30623"/>
<path d="M268.737 14.8966H267.107L270.771 4.71479H272.546L276.21 14.8966H274.579L271.7 6.56422H271.621L268.737 14.8966ZM269.011 10.9094H274.301V12.202H269.011V10.9094ZM283.136 7.26024L280.367 14.8966H278.776L276.002 7.26024H277.598L279.532 13.1367H279.611L281.54 7.26024H283.136ZM286.537 15.0656C286.053 15.0656 285.615 14.9762 285.224 14.7972C284.833 14.6149 284.523 14.3514 284.295 14.0067C284.069 13.662 283.957 13.2394 283.957 12.7389C283.957 12.3081 284.039 11.9534 284.205 11.675C284.371 11.3966 284.595 11.1762 284.876 11.0138C285.158 10.8514 285.473 10.7288 285.821 10.6459C286.169 10.563 286.524 10.5001 286.885 10.457C287.342 10.4039 287.713 10.3609 287.998 10.3277C288.284 10.2913 288.491 10.2333 288.62 10.1537C288.749 10.0742 288.814 9.9449 288.814 9.76592V9.73112C288.814 9.29694 288.691 8.96053 288.446 8.72189C288.204 8.48325 287.843 8.36394 287.362 8.36394C286.862 8.36394 286.467 8.47497 286.179 8.69703C285.894 8.91578 285.697 9.15939 285.587 9.42786L284.19 9.10967C284.356 8.64566 284.598 8.27113 284.916 7.98609C285.238 7.69774 285.607 7.48894 286.025 7.35967C286.442 7.2271 286.882 7.16081 287.342 7.16081C287.647 7.16081 287.97 7.19727 288.312 7.27019C288.656 7.33979 288.978 7.46905 289.276 7.65797C289.578 7.84689 289.825 8.11701 290.017 8.46834C290.209 8.81635 290.305 9.26877 290.305 9.82558V14.8966H288.854V13.8526H288.794C288.698 14.0448 288.554 14.2337 288.361 14.4193C288.169 14.6049 287.922 14.7591 287.621 14.8817C287.319 15.0043 286.958 15.0656 286.537 15.0656ZM286.86 13.8725C287.271 13.8725 287.622 13.7913 287.914 13.6289C288.209 13.4664 288.433 13.2543 288.585 12.9925C288.741 12.7273 288.819 12.444 288.819 12.1423V11.158C288.766 11.211 288.663 11.2607 288.511 11.3071C288.361 11.3502 288.191 11.3883 287.998 11.4215C287.806 11.4513 287.619 11.4795 287.437 11.506C287.254 11.5292 287.102 11.5491 286.979 11.5656C286.691 11.6021 286.427 11.6634 286.189 11.7496C285.954 11.8358 285.765 11.9601 285.622 12.1225C285.483 12.2815 285.413 12.4937 285.413 12.7588C285.413 13.1267 285.549 13.4051 285.821 13.594C286.093 13.7797 286.439 13.8725 286.86 13.8725ZM292.285 14.8966V7.26024H293.772V14.8966H292.285ZM293.036 6.08198C292.777 6.08198 292.555 5.9958 292.37 5.82345C292.187 5.64779 292.096 5.43898 292.096 5.19703C292.096 4.95177 292.187 4.74296 292.37 4.57061C292.555 4.39495 292.777 4.30712 293.036 4.30712C293.294 4.30712 293.515 4.39495 293.697 4.57061C293.883 4.74296 293.976 4.95177 293.976 5.19703C293.976 5.43898 293.883 5.64779 293.697 5.82345C293.515 5.9958 293.294 6.08198 293.036 6.08198ZM297.258 4.71479V14.8966H295.772V4.71479H297.258ZM301.48 15.0656C300.996 15.0656 300.559 14.9762 300.168 14.7972C299.777 14.6149 299.467 14.3514 299.238 14.0067C299.013 13.662 298.9 13.2394 298.9 12.7389C298.9 12.3081 298.983 11.9534 299.149 11.675C299.314 11.3966 299.538 11.1762 299.82 11.0138C300.101 10.8514 300.416 10.7288 300.764 10.6459C301.112 10.563 301.467 10.5001 301.828 10.457C302.286 10.4039 302.657 10.3609 302.942 10.3277C303.227 10.2913 303.434 10.2333 303.563 10.1537C303.693 10.0742 303.757 9.9449 303.757 9.76592V9.73112C303.757 9.29694 303.635 8.96053 303.389 8.72189C303.147 8.48325 302.786 8.36394 302.305 8.36394C301.805 8.36394 301.411 8.47497 301.122 8.69703C300.837 8.91578 300.64 9.15939 300.531 9.42786L299.134 9.10967C299.299 8.64566 299.541 8.27113 299.859 7.98609C300.181 7.69774 300.551 7.48894 300.968 7.35967C301.386 7.2271 301.825 7.16081 302.286 7.16081C302.591 7.16081 302.914 7.19727 303.255 7.27019C303.6 7.33979 303.921 7.46905 304.22 7.65797C304.521 7.84689 304.768 8.11701 304.96 8.46834C305.153 8.81635 305.249 9.26877 305.249 9.82558V14.8966H303.797V13.8526H303.737C303.641 14.0448 303.497 14.2337 303.305 14.4193C303.113 14.6049 302.866 14.7591 302.564 14.8817C302.262 15.0043 301.901 15.0656 301.48 15.0656ZM301.803 13.8725C302.214 13.8725 302.566 13.7913 302.857 13.6289C303.152 13.4664 303.376 13.2543 303.529 12.9925C303.684 12.7273 303.762 12.444 303.762 12.1423V11.158C303.709 11.211 303.606 11.2607 303.454 11.3071C303.305 11.3502 303.134 11.3883 302.942 11.4215C302.75 11.4513 302.562 11.4795 302.38 11.506C302.198 11.5292 302.045 11.5491 301.923 11.5656C301.634 11.6021 301.371 11.6634 301.132 11.7496C300.897 11.8358 300.708 11.9601 300.565 12.1225C300.426 12.2815 300.357 12.4937 300.357 12.7588C300.357 13.1267 300.493 13.4051 300.764 13.594C301.036 13.7797 301.382 13.8725 301.803 13.8725ZM307.348 14.8966V4.71479H308.834V8.49817H308.924C309.01 8.33908 309.134 8.15513 309.297 7.94632C309.459 7.73752 309.685 7.55522 309.973 7.39945C310.261 7.24036 310.642 7.16081 311.116 7.16081C311.733 7.16081 312.283 7.31659 312.767 7.62814C313.251 7.93969 313.63 8.38879 313.905 8.97544C314.184 9.56209 314.323 10.2681 314.323 11.0933C314.323 11.9186 314.186 12.6262 313.91 13.2162C313.635 13.8029 313.257 14.2553 312.777 14.5735C312.296 14.8883 311.748 15.0458 311.131 15.0458C310.667 15.0458 310.288 14.9679 309.993 14.8121C309.701 14.6563 309.472 14.474 309.307 14.2652C309.141 14.0564 309.013 13.8708 308.924 13.7084H308.8V14.8966H307.348ZM308.805 11.0784C308.805 11.6154 308.882 12.086 309.038 12.4904C309.194 12.8947 309.419 13.2112 309.714 13.4399C310.009 13.6653 310.371 13.778 310.798 13.778C311.242 13.778 311.614 13.6603 311.912 13.425C312.21 13.1864 312.436 12.8632 312.588 12.4556C312.744 12.0479 312.822 11.5888 312.822 11.0784C312.822 10.5746 312.745 10.1222 312.593 9.72118C312.444 9.32014 312.218 9.00361 311.917 8.77161C311.619 8.5396 311.246 8.42359 310.798 8.42359C310.367 8.42359 310.003 8.53463 309.704 8.75669C309.409 8.97876 309.186 9.28865 309.033 9.68638C308.881 10.0841 308.805 10.5481 308.805 11.0784ZM317.479 4.71479V14.8966H315.992V4.71479H317.479ZM322.77 15.0507C322.017 15.0507 321.369 14.89 320.826 14.5685C320.286 14.2437 319.868 13.7879 319.573 13.2013C319.281 12.6113 319.136 11.9203 319.136 11.1281C319.136 10.3459 319.281 9.65655 319.573 9.05996C319.868 8.46337 320.279 7.9977 320.806 7.66294C321.336 7.32819 321.956 7.16081 322.665 7.16081C323.096 7.16081 323.514 7.23207 323.918 7.37459C324.323 7.51711 324.686 7.74083 325.007 8.04575C325.329 8.35068 325.582 8.74675 325.768 9.23396C325.953 9.71787 326.046 10.3062 326.046 10.9989V11.5259H319.976V10.4122H324.589C324.589 10.0211 324.51 9.67478 324.351 9.37317C324.192 9.06824 323.968 8.82795 323.68 8.65229C323.395 8.47663 323.06 8.38879 322.675 8.38879C322.258 8.38879 321.893 8.49154 321.582 8.69703C321.273 8.89921 321.035 9.16436 320.866 9.49249C320.7 9.8173 320.617 10.1703 320.617 10.5514V11.4215C320.617 11.9319 320.707 12.3661 320.886 12.724C321.068 13.082 321.321 13.3554 321.646 13.5443C321.971 13.7299 322.351 13.8227 322.785 13.8227C323.066 13.8227 323.323 13.783 323.555 13.7034C323.787 13.6206 323.988 13.4979 324.157 13.3355C324.326 13.1731 324.455 12.9726 324.545 12.734L325.952 12.9875C325.839 13.4018 325.637 13.7647 325.345 14.0763C325.057 14.3845 324.694 14.6248 324.256 14.7972C323.822 14.9662 323.327 15.0507 322.77 15.0507Z" fill="black"/>
<circle cx="251.517" cy="11.4483" r="10.5517" fill="#C1C1C1"/>
</svg>
