<svg width="184" height="93" viewBox="0 0 184 93" fill="none" xmlns="http://www.w3.org/2000/svg">
<path d="M119.639 62V51.8182H120.872V60.9062H125.605V62H119.639ZM129.602 62.179C129.118 62.179 128.679 62.0878 128.285 61.9055C127.89 61.7199 127.577 61.4531 127.345 61.1051C127.113 60.7538 126.997 60.3295 126.997 59.8324C126.997 59.3949 127.083 59.0402 127.256 58.7685C127.428 58.4934 127.658 58.2779 127.947 58.1222C128.235 57.9664 128.553 57.8504 128.901 57.7741C129.253 57.6946 129.606 57.6316 129.96 57.5852C130.424 57.5256 130.8 57.4808 131.089 57.451C131.38 57.4179 131.593 57.3632 131.725 57.2869C131.861 57.2107 131.929 57.0781 131.929 56.8892V56.8494C131.929 56.3589 131.795 55.9777 131.526 55.706C131.261 55.4342 130.858 55.2983 130.318 55.2983C129.758 55.2983 129.319 55.4209 129.001 55.6662C128.683 55.9115 128.459 56.1733 128.33 56.4517L127.216 56.054C127.415 55.59 127.68 55.2287 128.011 54.9702C128.346 54.7083 128.711 54.526 129.105 54.4233C129.503 54.3172 129.894 54.2642 130.278 54.2642C130.524 54.2642 130.805 54.294 131.124 54.3537C131.445 54.41 131.755 54.5277 132.053 54.7067C132.355 54.8857 132.605 55.1558 132.804 55.517C133.003 55.8783 133.102 56.3622 133.102 56.9688V62H131.929V60.9659H131.869C131.79 61.1316 131.657 61.3089 131.472 61.4979C131.286 61.6868 131.039 61.8475 130.731 61.9801C130.423 62.1127 130.046 62.179 129.602 62.179ZM129.781 61.125C130.245 61.125 130.636 61.0339 130.955 60.8516C131.276 60.6693 131.518 60.4339 131.68 60.1456C131.846 59.8572 131.929 59.554 131.929 59.2358V58.1619C131.879 58.2216 131.77 58.2763 131.601 58.326C131.435 58.3724 131.243 58.4138 131.024 58.4503C130.809 58.4834 130.598 58.5133 130.393 58.5398C130.191 58.563 130.027 58.5829 129.901 58.5994C129.596 58.6392 129.311 58.7038 129.045 58.7933C128.784 58.8795 128.571 59.0104 128.409 59.1861C128.25 59.3584 128.17 59.5937 128.17 59.892C128.17 60.2997 128.321 60.608 128.623 60.8168C128.928 61.0223 129.314 61.125 129.781 61.125ZM136.417 57.4062V62H135.244V54.3636H136.377V55.5568H136.477C136.656 55.169 136.927 54.8575 137.292 54.6222C137.657 54.3835 138.127 54.2642 138.704 54.2642C139.221 54.2642 139.673 54.3703 140.061 54.5824C140.449 54.7912 140.751 55.1094 140.966 55.5369C141.182 55.9612 141.289 56.4981 141.289 57.1477V62H140.116V57.2273C140.116 56.6274 139.96 56.16 139.649 55.8253C139.337 55.4872 138.91 55.3182 138.366 55.3182C137.991 55.3182 137.657 55.3994 137.362 55.5618C137.07 55.7242 136.84 55.9612 136.671 56.2727C136.502 56.5843 136.417 56.9621 136.417 57.4062ZM146.516 65.0227C145.949 65.0227 145.462 64.9498 145.054 64.804C144.646 64.6615 144.307 64.4725 144.035 64.2372C143.766 64.0052 143.553 63.7566 143.393 63.4915L144.328 62.8352C144.434 62.9744 144.568 63.1335 144.731 63.3125C144.893 63.4948 145.115 63.6522 145.397 63.7848C145.682 63.9207 146.055 63.9886 146.516 63.9886C147.132 63.9886 147.641 63.8395 148.042 63.5412C148.443 63.2429 148.643 62.7756 148.643 62.1392V60.5881H148.544C148.458 60.7273 148.335 60.8996 148.176 61.1051C148.02 61.3073 147.795 61.4879 147.5 61.647C147.208 61.8028 146.814 61.8807 146.317 61.8807C145.7 61.8807 145.147 61.7348 144.656 61.4432C144.169 61.1515 143.783 60.7273 143.498 60.1705C143.216 59.6136 143.075 58.9375 143.075 58.142C143.075 57.3598 143.213 56.6787 143.488 56.0987C143.763 55.5154 144.146 55.0646 144.636 54.7464C145.127 54.425 145.694 54.2642 146.337 54.2642C146.834 54.2642 147.228 54.3471 147.52 54.5128C147.815 54.6752 148.04 54.8608 148.196 55.0696C148.355 55.2751 148.478 55.4441 148.564 55.5767H148.683V54.3636H149.817V62.2188C149.817 62.875 149.668 63.4086 149.369 63.8196C149.074 64.2339 148.677 64.5372 148.176 64.7294C147.679 64.925 147.125 65.0227 146.516 65.0227ZM146.476 60.8267C146.946 60.8267 147.344 60.719 147.669 60.5036C147.994 60.2881 148.241 59.9782 148.41 59.5739C148.579 59.1695 148.663 58.6856 148.663 58.1222C148.663 57.572 148.58 57.0864 148.415 56.6655C148.249 56.2446 148.004 55.9148 147.679 55.6761C147.354 55.4375 146.953 55.3182 146.476 55.3182C145.979 55.3182 145.564 55.4441 145.233 55.696C144.905 55.9479 144.658 56.286 144.492 56.7102C144.33 57.1345 144.249 57.6051 144.249 58.1222C144.249 58.6525 144.331 59.1214 144.497 59.5291C144.666 59.9335 144.915 60.2517 145.243 60.4837C145.574 60.7124 145.985 60.8267 146.476 60.8267ZM156.777 58.8778V54.3636H157.95V62H156.777V60.7074H156.697C156.518 61.0952 156.24 61.425 155.862 61.6967C155.484 61.9652 155.007 62.0994 154.43 62.0994C153.953 62.0994 153.529 61.995 153.158 61.7862C152.786 61.5741 152.495 61.2559 152.283 60.8317C152.071 60.4041 151.964 59.8655 151.964 59.2159V54.3636H153.138V59.1364C153.138 59.6932 153.294 60.1373 153.605 60.4688C153.92 60.8002 154.321 60.9659 154.808 60.9659C155.1 60.9659 155.397 60.8913 155.698 60.7422C156.003 60.593 156.258 60.3643 156.464 60.0561C156.673 59.7479 156.777 59.3551 156.777 58.8778ZM162.346 62.179C161.863 62.179 161.423 62.0878 161.029 61.9055C160.635 61.7199 160.321 61.4531 160.089 61.1051C159.857 60.7538 159.741 60.3295 159.741 59.8324C159.741 59.3949 159.827 59.0402 160 58.7685C160.172 58.4934 160.403 58.2779 160.691 58.1222C160.979 57.9664 161.297 57.8504 161.645 57.7741C161.997 57.6946 162.35 57.6316 162.704 57.5852C163.168 57.5256 163.545 57.4808 163.833 57.451C164.125 57.4179 164.337 57.3632 164.469 57.2869C164.605 57.2107 164.673 57.0781 164.673 56.8892V56.8494C164.673 56.3589 164.539 55.9777 164.27 55.706C164.005 55.4342 163.603 55.2983 163.062 55.2983C162.502 55.2983 162.063 55.4209 161.745 55.6662C161.427 55.9115 161.203 56.1733 161.074 56.4517L159.96 56.054C160.159 55.59 160.424 55.2287 160.756 54.9702C161.09 54.7083 161.455 54.526 161.849 54.4233C162.247 54.3172 162.638 54.2642 163.023 54.2642C163.268 54.2642 163.55 54.294 163.868 54.3537C164.189 54.41 164.499 54.5277 164.797 54.7067C165.099 54.8857 165.349 55.1558 165.548 55.517C165.747 55.8783 165.846 56.3622 165.846 56.9688V62H164.673V60.9659H164.613C164.534 61.1316 164.401 61.3089 164.216 61.4979C164.03 61.6868 163.783 61.8475 163.475 61.9801C163.167 62.1127 162.791 62.179 162.346 62.179ZM162.525 61.125C162.989 61.125 163.381 61.0339 163.699 60.8516C164.02 60.6693 164.262 60.4339 164.425 60.1456C164.59 59.8572 164.673 59.554 164.673 59.2358V58.1619C164.623 58.2216 164.514 58.2763 164.345 58.326C164.179 58.3724 163.987 58.4138 163.768 58.4503C163.553 58.4834 163.342 58.5133 163.137 58.5398C162.935 58.563 162.771 58.5829 162.645 58.5994C162.34 58.6392 162.055 58.7038 161.79 58.7933C161.528 58.8795 161.316 59.0104 161.153 59.1861C160.994 59.3584 160.915 59.5937 160.915 59.892C160.915 60.2997 161.065 60.608 161.367 60.8168C161.672 61.0223 162.058 61.125 162.525 61.125ZM171.07 65.0227C170.504 65.0227 170.016 64.9498 169.609 64.804C169.201 64.6615 168.861 64.4725 168.589 64.2372C168.321 64.0052 168.107 63.7566 167.948 63.4915L168.883 62.8352C168.989 62.9744 169.123 63.1335 169.286 63.3125C169.448 63.4948 169.67 63.6522 169.952 63.7848C170.237 63.9207 170.61 63.9886 171.07 63.9886C171.687 63.9886 172.196 63.8395 172.597 63.5412C172.998 63.2429 173.198 62.7756 173.198 62.1392V60.5881H173.099C173.013 60.7273 172.89 60.8996 172.731 61.1051C172.575 61.3073 172.35 61.4879 172.055 61.647C171.763 61.8028 171.369 61.8807 170.871 61.8807C170.255 61.8807 169.701 61.7348 169.211 61.4432C168.724 61.1515 168.338 60.7273 168.053 60.1705C167.771 59.6136 167.63 58.9375 167.63 58.142C167.63 57.3598 167.768 56.6787 168.043 56.0987C168.318 55.5154 168.701 55.0646 169.191 54.7464C169.682 54.425 170.248 54.2642 170.891 54.2642C171.388 54.2642 171.783 54.3471 172.075 54.5128C172.37 54.6752 172.595 54.8608 172.751 55.0696C172.91 55.2751 173.032 55.4441 173.119 55.5767H173.238V54.3636H174.371V62.2188C174.371 62.875 174.222 63.4086 173.924 63.8196C173.629 64.2339 173.231 64.5372 172.731 64.7294C172.234 64.925 171.68 65.0227 171.07 65.0227ZM171.031 60.8267C171.501 60.8267 171.899 60.719 172.224 60.5036C172.549 60.2881 172.795 59.9782 172.964 59.5739C173.134 59.1695 173.218 58.6856 173.218 58.1222C173.218 57.572 173.135 57.0864 172.969 56.6655C172.804 56.2446 172.558 55.9148 172.234 55.6761C171.909 55.4375 171.508 55.3182 171.031 55.3182C170.533 55.3182 170.119 55.4441 169.788 55.696C169.46 55.9479 169.213 56.286 169.047 56.7102C168.884 57.1345 168.803 57.6051 168.803 58.1222C168.803 58.6525 168.886 59.1214 169.052 59.5291C169.221 59.9335 169.469 60.2517 169.798 60.4837C170.129 60.7124 170.54 60.8267 171.031 60.8267ZM179.721 62.1591C178.985 62.1591 178.35 61.9967 177.817 61.6719C177.286 61.3438 176.877 60.8864 176.589 60.2997C176.304 59.7098 176.161 59.0237 176.161 58.2415C176.161 57.4593 176.304 56.7699 176.589 56.1733C176.877 55.5734 177.278 55.1061 177.792 54.7713C178.309 54.4332 178.912 54.2642 179.602 54.2642C179.999 54.2642 180.392 54.3305 180.78 54.4631C181.168 54.5956 181.521 54.8111 181.839 55.1094C182.157 55.4044 182.411 55.7955 182.599 56.2827C182.788 56.7699 182.883 57.3698 182.883 58.0824V58.5795H176.996V57.5653H181.69C181.69 57.1345 181.603 56.75 181.431 56.4119C181.262 56.0739 181.02 55.8071 180.705 55.6115C180.394 55.416 180.026 55.3182 179.602 55.3182C179.134 55.3182 178.73 55.4342 178.388 55.6662C178.05 55.8949 177.79 56.1932 177.608 56.5611C177.426 56.929 177.335 57.3234 177.335 57.7443V58.4205C177.335 58.9972 177.434 59.486 177.633 59.8871C177.835 60.2848 178.115 60.5881 178.473 60.7969C178.831 61.0024 179.247 61.1051 179.721 61.1051C180.029 61.1051 180.308 61.062 180.556 60.9759C180.808 60.8864 181.025 60.7538 181.207 60.5781C181.39 60.3991 181.531 60.1771 181.63 59.9119L182.763 60.2301C182.644 60.6146 182.444 60.9527 182.162 61.2443C181.88 61.5327 181.532 61.758 181.118 61.9205C180.704 62.0795 180.238 62.1591 179.721 62.1591Z" fill="#727272"/>
<path d="M121.23 89V77.3636H129.071V79.392H123.69V82.1648H128.668V84.1932H123.69V86.9716H129.094V89H121.23ZM133.402 83.9545V89H130.982V80.2727H133.288V81.8125H133.391C133.584 81.3049 133.908 80.9034 134.362 80.608C134.817 80.3087 135.368 80.1591 136.016 80.1591C136.622 80.1591 137.15 80.2917 137.601 80.5568C138.052 80.822 138.402 81.2008 138.652 81.6932C138.902 82.1818 139.027 82.7652 139.027 83.4432V89H136.607V83.875C136.61 83.3409 136.474 82.9242 136.197 82.625C135.921 82.322 135.54 82.1705 135.055 82.1705C134.73 82.1705 134.442 82.2405 134.192 82.3807C133.946 82.5208 133.752 82.7254 133.612 82.9943C133.476 83.2595 133.406 83.5795 133.402 83.9545ZM144.866 92.4545C144.082 92.4545 143.41 92.3466 142.849 92.1307C142.293 91.9186 141.849 91.6288 141.52 91.2614C141.19 90.8939 140.976 90.4811 140.878 90.0227L143.116 89.7216C143.185 89.8958 143.293 90.0587 143.44 90.2102C143.588 90.3617 143.783 90.483 144.026 90.5739C144.272 90.6686 144.571 90.7159 144.923 90.7159C145.45 90.7159 145.884 90.5871 146.224 90.3295C146.569 90.0758 146.741 89.6496 146.741 89.0511V87.4545H146.639C146.533 87.697 146.374 87.9261 146.162 88.142C145.95 88.358 145.677 88.5341 145.344 88.6705C145.01 88.8068 144.613 88.875 144.151 88.875C143.495 88.875 142.899 88.7235 142.361 88.4205C141.827 88.1136 141.401 87.6458 141.082 87.017C140.768 86.3845 140.611 85.5852 140.611 84.6193C140.611 83.6307 140.772 82.8049 141.094 82.142C141.416 81.4792 141.844 80.983 142.378 80.6534C142.916 80.3239 143.505 80.1591 144.145 80.1591C144.634 80.1591 145.043 80.2424 145.372 80.4091C145.702 80.572 145.967 80.7765 146.168 81.0227C146.372 81.2652 146.529 81.5038 146.639 81.7386H146.73V80.2727H149.134V89.0852C149.134 89.8277 148.952 90.4489 148.588 90.9489C148.224 91.4489 147.721 91.8239 147.077 92.0739C146.437 92.3277 145.7 92.4545 144.866 92.4545ZM144.918 87.0568C145.308 87.0568 145.637 86.9602 145.906 86.767C146.179 86.5701 146.387 86.2898 146.531 85.9261C146.679 85.5587 146.753 85.1193 146.753 84.608C146.753 84.0966 146.681 83.6534 146.537 83.2784C146.393 82.8996 146.185 82.6061 145.912 82.3977C145.639 82.1894 145.308 82.0852 144.918 82.0852C144.52 82.0852 144.185 82.1932 143.912 82.4091C143.639 82.6212 143.433 82.9167 143.293 83.2955C143.152 83.6742 143.082 84.1117 143.082 84.608C143.082 85.1117 143.152 85.5473 143.293 85.9148C143.437 86.2784 143.643 86.5606 143.912 86.7614C144.185 86.9583 144.52 87.0568 144.918 87.0568ZM153.48 77.3636V89H151.06V77.3636H153.48ZM155.419 89V80.2727H157.839V89H155.419ZM156.635 79.1477C156.275 79.1477 155.966 79.0284 155.709 78.7898C155.455 78.5473 155.328 78.2576 155.328 77.9205C155.328 77.5871 155.455 77.3011 155.709 77.0625C155.966 76.8201 156.275 76.6989 156.635 76.6989C156.995 76.6989 157.302 76.8201 157.555 77.0625C157.813 77.3011 157.942 77.5871 157.942 77.9205C157.942 78.2576 157.813 78.5473 157.555 78.7898C157.302 79.0284 156.995 79.1477 156.635 79.1477ZM167.04 82.7614L164.824 82.8977C164.786 82.7083 164.705 82.5379 164.58 82.3864C164.455 82.2311 164.29 82.108 164.085 82.017C163.884 81.9223 163.644 81.875 163.364 81.875C162.989 81.875 162.672 81.9545 162.415 82.1136C162.157 82.2689 162.028 82.4773 162.028 82.7386C162.028 82.947 162.112 83.1231 162.278 83.267C162.445 83.411 162.731 83.5265 163.136 83.6136L164.716 83.9318C165.564 84.1061 166.197 84.3864 166.614 84.7727C167.03 85.1591 167.239 85.6667 167.239 86.2955C167.239 86.8674 167.07 87.3693 166.733 87.8011C166.4 88.233 165.941 88.5701 165.358 88.8125C164.778 89.0511 164.11 89.1705 163.352 89.1705C162.197 89.1705 161.277 88.9299 160.591 88.4489C159.909 87.964 159.509 87.3049 159.392 86.4716L161.773 86.3466C161.845 86.6989 162.019 86.9678 162.295 87.1534C162.572 87.3352 162.926 87.4261 163.358 87.4261C163.782 87.4261 164.123 87.3447 164.381 87.1818C164.642 87.0152 164.775 86.8011 164.778 86.5398C164.775 86.3201 164.682 86.1402 164.5 86C164.318 85.8561 164.038 85.7462 163.659 85.6705L162.148 85.3693C161.295 85.1989 160.661 84.9034 160.244 84.483C159.831 84.0625 159.625 83.5265 159.625 82.875C159.625 82.3144 159.777 81.8314 160.08 81.4261C160.386 81.0208 160.816 80.7083 161.369 80.4886C161.926 80.2689 162.578 80.1591 163.324 80.1591C164.426 80.1591 165.294 80.392 165.926 80.858C166.563 81.3239 166.934 81.9583 167.04 82.7614ZM171.183 83.9545V89H168.763V77.3636H171.115V81.8125H171.217C171.414 81.2973 171.732 80.8939 172.172 80.6023C172.611 80.3068 173.162 80.1591 173.825 80.1591C174.431 80.1591 174.96 80.2917 175.411 80.5568C175.865 80.8182 176.217 81.1951 176.467 81.6875C176.721 82.1761 176.846 82.7614 176.842 83.4432V89H174.422V83.875C174.426 83.3371 174.289 82.9186 174.013 82.6193C173.74 82.3201 173.357 82.1705 172.865 82.1705C172.536 82.1705 172.244 82.2405 171.99 82.3807C171.74 82.5208 171.543 82.7254 171.399 82.9943C171.259 83.2595 171.187 83.5795 171.183 83.9545Z" fill="black"/>
<path d="M159.65 16.65C159.65 23.5667 152.9 31.8833 150.15 34.9833C149.533 35.6667 148.467 35.6667 147.85 34.9833C145.1 31.8833 138.35 23.5667 138.35 16.65C138.35 10.7667 143.117 6 149 6C154.883 6 159.65 10.7667 159.65 16.65Z" fill="#B30623"/>
<path d="M148.983 20.9167C151.34 20.9167 153.25 19.0064 153.25 16.65C153.25 14.2936 151.34 12.3834 148.983 12.3834C146.627 12.3834 144.717 14.2936 144.717 16.65C144.717 19.0064 146.627 20.9167 148.983 20.9167Z" fill="white"/>
<path d="M13.233 62V51.8182H14.4659V60.9062H19.1989V62H13.233ZM24.1506 62.1591C23.4148 62.1591 22.7801 61.9967 22.2464 61.6719C21.7161 61.3438 21.3068 60.8864 21.0185 60.2997C20.7334 59.7098 20.5909 59.0237 20.5909 58.2415C20.5909 57.4593 20.7334 56.7699 21.0185 56.1733C21.3068 55.5734 21.7079 55.1061 22.2216 54.7713C22.7386 54.4332 23.3419 54.2642 24.0312 54.2642C24.429 54.2642 24.8217 54.3305 25.2095 54.4631C25.5973 54.5956 25.9503 54.8111 26.2685 55.1094C26.5866 55.4044 26.8402 55.7955 27.0291 56.2827C27.218 56.7699 27.3125 57.3698 27.3125 58.0824V58.5795H21.4261V57.5653H26.1193C26.1193 57.1345 26.0331 56.75 25.8608 56.4119C25.6918 56.0739 25.4498 55.8071 25.1349 55.6115C24.8234 55.416 24.4555 55.3182 24.0312 55.3182C23.5639 55.3182 23.1596 55.4342 22.8182 55.6662C22.4801 55.8949 22.2199 56.1932 22.0376 56.5611C21.8554 56.929 21.7642 57.3234 21.7642 57.7443V58.4205C21.7642 58.9972 21.8636 59.486 22.0625 59.8871C22.2647 60.2848 22.5447 60.5881 22.9027 60.7969C23.2607 61.0024 23.6766 61.1051 24.1506 61.1051C24.4588 61.1051 24.7372 61.062 24.9858 60.9759C25.2377 60.8864 25.4548 60.7538 25.6371 60.5781C25.8194 60.3991 25.9602 60.1771 26.0597 59.9119L27.1932 60.2301C27.0739 60.6146 26.8733 60.9527 26.5916 61.2443C26.3099 61.5327 25.9619 61.758 25.5476 61.9205C25.1333 62.0795 24.6676 62.1591 24.1506 62.1591ZM30.2706 57.4062V62H29.0973V54.3636H30.2308V55.5568H30.3303C30.5092 55.169 30.781 54.8575 31.1456 54.6222C31.5102 54.3835 31.9808 54.2642 32.5575 54.2642C33.0746 54.2642 33.527 54.3703 33.9148 54.5824C34.3026 54.7912 34.6042 55.1094 34.8196 55.5369C35.035 55.9612 35.1428 56.4981 35.1428 57.1477V62H33.9695V57.2273C33.9695 56.6274 33.8137 56.16 33.5021 55.8253C33.1906 55.4872 32.763 55.3182 32.2195 55.3182C31.8449 55.3182 31.5102 55.3994 31.2152 55.5618C30.9235 55.7242 30.6932 55.9612 30.5241 56.2727C30.3551 56.5843 30.2706 56.9621 30.2706 57.4062ZM40.3691 65.0227C39.8024 65.0227 39.3152 64.9498 38.9075 64.804C38.4998 64.6615 38.1601 64.4725 37.8883 64.2372C37.6199 64.0052 37.4061 63.7566 37.247 63.4915L38.1816 62.8352C38.2877 62.9744 38.4219 63.1335 38.5843 63.3125C38.7467 63.4948 38.9688 63.6522 39.2505 63.7848C39.5356 63.9207 39.9084 63.9886 40.3691 63.9886C40.9856 63.9886 41.4944 63.8395 41.8954 63.5412C42.2965 63.2429 42.497 62.7756 42.497 62.1392V60.5881H42.3975C42.3114 60.7273 42.1887 60.8996 42.0297 61.1051C41.8739 61.3073 41.6485 61.4879 41.3535 61.647C41.0618 61.8028 40.6674 61.8807 40.1703 61.8807C39.5538 61.8807 39.0003 61.7348 38.5098 61.4432C38.0225 61.1515 37.6364 60.7273 37.3514 60.1705C37.0697 59.6136 36.9288 58.9375 36.9288 58.142C36.9288 57.3598 37.0663 56.6787 37.3414 56.0987C37.6165 55.5154 37.9993 55.0646 38.4899 54.7464C38.9804 54.425 39.5472 54.2642 40.1902 54.2642C40.6873 54.2642 41.0817 54.3471 41.3734 54.5128C41.6684 54.6752 41.8938 54.8608 42.0495 55.0696C42.2086 55.2751 42.3313 55.4441 42.4174 55.5767H42.5368V54.3636H43.6703V62.2188C43.6703 62.875 43.5211 63.4086 43.2228 63.8196C42.9279 64.2339 42.5301 64.5372 42.0297 64.7294C41.5325 64.925 40.979 65.0227 40.3691 65.0227ZM40.3294 60.8267C40.8 60.8267 41.1977 60.719 41.5225 60.5036C41.8474 60.2881 42.0943 59.9782 42.2633 59.5739C42.4324 59.1695 42.5169 58.6856 42.5169 58.1222C42.5169 57.572 42.434 57.0864 42.2683 56.6655C42.1026 56.2446 41.8573 55.9148 41.5325 55.6761C41.2077 55.4375 40.8066 55.3182 40.3294 55.3182C39.8322 55.3182 39.4179 55.4441 39.0865 55.696C38.7583 55.9479 38.5114 56.286 38.3457 56.7102C38.1833 57.1345 38.1021 57.6051 38.1021 58.1222C38.1021 58.6525 38.185 59.1214 38.3507 59.5291C38.5197 59.9335 38.7683 60.2517 39.0964 60.4837C39.4279 60.7124 39.8388 60.8267 40.3294 60.8267ZM46.9913 57.4062V62H45.818V51.8182H46.9913V55.5568H47.0907C47.2697 55.1624 47.5382 54.8492 47.8961 54.6172C48.2574 54.3819 48.738 54.2642 49.3379 54.2642C49.8583 54.2642 50.314 54.3686 50.7051 54.5774C51.0962 54.7829 51.3994 55.0994 51.6149 55.527C51.8336 55.9512 51.943 56.4915 51.943 57.1477V62H50.7697V57.2273C50.7697 56.6207 50.6123 56.1518 50.2974 55.8203C49.9859 55.4856 49.5533 55.3182 48.9998 55.3182C48.6154 55.3182 48.2707 55.3994 47.9657 55.5618C47.6641 55.7242 47.4255 55.9612 47.2498 56.2727C47.0775 56.5843 46.9913 56.9621 46.9913 57.4062ZM57.4105 54.3636V55.358H53.4531V54.3636H57.4105ZM54.6065 52.5341H55.7798V59.8125C55.7798 60.1439 55.8279 60.3925 55.924 60.5582C56.0234 60.7206 56.1494 60.83 56.3018 60.8864C56.4576 60.9394 56.6217 60.9659 56.794 60.9659C56.9233 60.9659 57.0294 60.9593 57.1122 60.946C57.1951 60.9295 57.2614 60.9162 57.3111 60.9062L57.5497 61.9602C57.4702 61.9901 57.3591 62.0199 57.2166 62.0497C57.0741 62.0829 56.8935 62.0994 56.6747 62.0994C56.3433 62.0994 56.0185 62.0282 55.7003 61.8857C55.3854 61.7431 55.1236 61.526 54.9148 61.2344C54.7093 60.9427 54.6065 60.5748 54.6065 60.1307V52.5341Z" fill="#727272"/>
<path d="M5.50568 89.2557C4.52841 89.2519 3.6875 89.0114 2.98295 88.5341C2.2822 88.0568 1.74242 87.3655 1.36364 86.4602C0.988636 85.5549 0.80303 84.4659 0.806818 83.1932C0.806818 81.9242 0.994318 80.8428 1.36932 79.9489C1.74811 79.0549 2.28788 78.375 2.98864 77.9091C3.69318 77.4394 4.5322 77.2045 5.50568 77.2045C6.47917 77.2045 7.31629 77.4394 8.01705 77.9091C8.72159 78.3788 9.26326 79.0606 9.64205 79.9545C10.0208 80.8447 10.2083 81.9242 10.2045 83.1932C10.2045 84.4697 10.0152 85.5606 9.63636 86.4659C9.26136 87.3712 8.72349 88.0625 8.02273 88.5398C7.32197 89.017 6.48295 89.2557 5.50568 89.2557ZM5.50568 87.2159C6.17235 87.2159 6.70455 86.8807 7.10227 86.2102C7.5 85.5398 7.69697 84.5341 7.69318 83.1932C7.69318 82.3106 7.60227 81.5758 7.42045 80.9886C7.24242 80.4015 6.98864 79.9602 6.65909 79.6648C6.33333 79.3693 5.94886 79.2216 5.50568 79.2216C4.8428 79.2216 4.3125 79.553 3.91477 80.2159C3.51705 80.8788 3.31629 81.8712 3.3125 83.1932C3.3125 84.0871 3.40152 84.8333 3.57955 85.4318C3.76136 86.0265 4.01705 86.4735 4.34659 86.7727C4.67614 87.0682 5.0625 87.2159 5.50568 87.2159ZM16.2599 89.1591C15.4115 89.1591 14.6558 89.0133 13.9929 88.7216C13.3338 88.4261 12.813 88.0208 12.4304 87.5057C12.0516 86.9867 11.8565 86.3883 11.8452 85.7102H14.3224C14.3376 85.9943 14.4304 86.2443 14.6009 86.4602C14.7751 86.6723 15.0062 86.8371 15.294 86.9545C15.5819 87.072 15.9058 87.1307 16.2656 87.1307C16.6406 87.1307 16.9721 87.0644 17.2599 86.9318C17.5478 86.7992 17.7732 86.6155 17.9361 86.3807C18.099 86.1458 18.1804 85.875 18.1804 85.5682C18.1804 85.2576 18.0933 84.983 17.919 84.7443C17.7486 84.5019 17.5024 84.3125 17.1804 84.1761C16.8622 84.0398 16.4834 83.9716 16.044 83.9716H14.9588V82.1648H16.044C16.4152 82.1648 16.7429 82.1004 17.027 81.9716C17.3149 81.8428 17.5384 81.6648 17.6974 81.4375C17.8565 81.2064 17.9361 80.9375 17.9361 80.6307C17.9361 80.339 17.866 80.0833 17.7259 79.8636C17.5895 79.6402 17.3963 79.4659 17.1463 79.3409C16.9001 79.2159 16.6122 79.1534 16.2827 79.1534C15.9493 79.1534 15.6444 79.214 15.3679 79.3352C15.0914 79.4527 14.8698 79.6212 14.7031 79.8409C14.5365 80.0606 14.4474 80.3182 14.4361 80.6136H12.0781C12.0895 79.9432 12.2808 79.3523 12.652 78.8409C13.0232 78.3295 13.5232 77.9299 14.152 77.642C14.7846 77.3504 15.4986 77.2045 16.294 77.2045C17.0971 77.2045 17.7997 77.3504 18.402 77.642C19.0043 77.9337 19.4721 78.3277 19.8054 78.8239C20.1425 79.3163 20.3092 79.8693 20.3054 80.483C20.3092 81.1345 20.1065 81.678 19.6974 82.1136C19.2921 82.5492 18.7637 82.8258 18.1122 82.9432V83.0341C18.9683 83.1439 19.6198 83.4413 20.0668 83.9261C20.5175 84.4072 20.741 85.0095 20.7372 85.733C20.741 86.3958 20.5497 86.9848 20.1634 87.5C19.7808 88.0152 19.2524 88.4205 18.5781 88.7159C17.9039 89.0114 17.1312 89.1591 16.2599 89.1591ZM23.9432 87.6477C23.5682 87.6477 23.2462 87.5152 22.9773 87.25C22.7121 86.9848 22.5795 86.6629 22.5795 86.2841C22.5795 85.9129 22.7121 85.5947 22.9773 85.3295C23.2462 85.0644 23.5682 84.9318 23.9432 84.9318C24.3068 84.9318 24.625 85.0644 24.8977 85.3295C25.1705 85.5947 25.3068 85.9129 25.3068 86.2841C25.3068 86.5341 25.2424 86.7633 25.1136 86.9716C24.9886 87.1761 24.8239 87.3409 24.6193 87.4659C24.4148 87.5871 24.1894 87.6477 23.9432 87.6477ZM23.9432 81.9375C23.5682 81.9375 23.2462 81.8049 22.9773 81.5398C22.7121 81.2746 22.5795 80.9527 22.5795 80.5739C22.5795 80.2027 22.7121 79.8864 22.9773 79.625C23.2462 79.3598 23.5682 79.2273 23.9432 79.2273C24.3068 79.2273 24.625 79.3598 24.8977 79.625C25.1705 79.8864 25.3068 80.2027 25.3068 80.5739C25.3068 80.8277 25.2424 81.0587 25.1136 81.267C24.9886 81.4716 24.8239 81.6345 24.6193 81.7557C24.4148 81.8769 24.1894 81.9375 23.9432 81.9375ZM32.3338 77.3636V89H29.8736V79.6989H29.8054L27.1406 81.3693V79.1875L30.0213 77.3636H32.3338ZM34.9233 86.9545V85.017L39.7812 77.3636H41.4517V80.0455H40.4631L37.4006 84.892V84.983H44.304V86.9545H34.9233ZM40.5085 89V86.3636L40.554 85.5057V77.3636H42.8608V89H40.5085ZM47.3807 87.6477C47.0057 87.6477 46.6837 87.5152 46.4148 87.25C46.1496 86.9848 46.017 86.6629 46.017 86.2841C46.017 85.9129 46.1496 85.5947 46.4148 85.3295C46.6837 85.0644 47.0057 84.9318 47.3807 84.9318C47.7443 84.9318 48.0625 85.0644 48.3352 85.3295C48.608 85.5947 48.7443 85.9129 48.7443 86.2841C48.7443 86.5341 48.6799 86.7633 48.5511 86.9716C48.4261 87.1761 48.2614 87.3409 48.0568 87.4659C47.8523 87.5871 47.6269 87.6477 47.3807 87.6477ZM47.3807 81.9375C47.0057 81.9375 46.6837 81.8049 46.4148 81.5398C46.1496 81.2746 46.017 80.9527 46.017 80.5739C46.017 80.2027 46.1496 79.8864 46.4148 79.625C46.6837 79.3598 47.0057 79.2273 47.3807 79.2273C47.7443 79.2273 48.0625 79.3598 48.3352 79.625C48.608 79.8864 48.7443 80.2027 48.7443 80.5739C48.7443 80.8277 48.6799 81.0587 48.5511 81.267C48.4261 81.4716 48.2614 81.6345 48.0568 81.7557C47.8523 81.8769 47.6269 81.9375 47.3807 81.9375ZM54.9588 89.1591C54.1558 89.1591 53.4399 89.0114 52.8111 88.7159C52.1861 88.4205 51.6899 88.0133 51.3224 87.4943C50.955 86.9754 50.7637 86.3807 50.7486 85.7102H53.1349C53.1615 86.161 53.3509 86.5265 53.7031 86.8068C54.0554 87.0871 54.474 87.2273 54.9588 87.2273C55.3452 87.2273 55.6861 87.142 55.9815 86.9716C56.2808 86.7973 56.5137 86.5568 56.6804 86.25C56.8509 85.9394 56.9361 85.5833 56.9361 85.1818C56.9361 84.7727 56.849 84.4129 56.6747 84.1023C56.5043 83.7917 56.2675 83.5492 55.9645 83.375C55.6615 83.2008 55.3149 83.1117 54.9247 83.108C54.5838 83.108 54.2524 83.178 53.9304 83.3182C53.6122 83.4583 53.3641 83.6496 53.1861 83.892L50.9986 83.5L51.5497 77.3636H58.6634V79.375H53.5781L53.277 82.2898H53.3452C53.5497 82.0019 53.8584 81.7633 54.2713 81.5739C54.6842 81.3845 55.1463 81.2898 55.6577 81.2898C56.3584 81.2898 56.9834 81.4545 57.5327 81.7841C58.0819 82.1136 58.5156 82.5663 58.8338 83.142C59.152 83.714 59.3092 84.3731 59.3054 85.1193C59.3092 85.9034 59.1274 86.6004 58.7599 87.2102C58.3963 87.8163 57.8868 88.2936 57.2315 88.642C56.58 88.9867 55.8224 89.1591 54.9588 89.1591ZM65.5838 89.2557C64.6065 89.2519 63.7656 89.0114 63.0611 88.5341C62.3603 88.0568 61.8205 87.3655 61.4418 86.4602C61.0668 85.5549 60.8812 84.4659 60.8849 83.1932C60.8849 81.9242 61.0724 80.8428 61.4474 79.9489C61.8262 79.0549 62.366 78.375 63.0668 77.9091C63.7713 77.4394 64.6103 77.2045 65.5838 77.2045C66.5573 77.2045 67.3944 77.4394 68.0952 77.9091C68.7997 78.3788 69.3414 79.0606 69.7202 79.9545C70.099 80.8447 70.2865 81.9242 70.2827 83.1932C70.2827 84.4697 70.0933 85.5606 69.7145 86.4659C69.3395 87.3712 68.8016 88.0625 68.1009 88.5398C67.4001 89.017 66.5611 89.2557 65.5838 89.2557ZM65.5838 87.2159C66.2505 87.2159 66.7827 86.8807 67.1804 86.2102C67.5781 85.5398 67.7751 84.5341 67.7713 83.1932C67.7713 82.3106 67.6804 81.5758 67.4986 80.9886C67.3205 80.4015 67.0668 79.9602 66.7372 79.6648C66.4115 79.3693 66.027 79.2216 65.5838 79.2216C64.9209 79.2216 64.3906 79.553 63.9929 80.2159C63.5952 80.8788 63.3944 81.8712 63.3906 83.1932C63.3906 84.0871 63.4796 84.8333 63.6577 85.4318C63.8395 86.0265 64.0952 86.4735 64.4247 86.7727C64.7543 87.0682 65.1406 87.2159 65.5838 87.2159Z" fill="black"/>
<circle cx="36" cy="20" r="15" fill="#B30623"/>
<path d="M36 13.3333V21.0649L41 23.3333" stroke="white" stroke-width="2" stroke-miterlimit="10" stroke-linecap="round" stroke-linejoin="round"/>
</svg>
