<svg width="89" height="17" viewBox="0 0 89 17" fill="none" xmlns="http://www.w3.org/2000/svg">
<path d="M9.10433 2.37025L10.5141 6.26577L14.6548 6.40197C15.0906 6.41559 15.2745 6.96723 14.9272 7.23964L11.6582 9.7799L12.8092 13.7571C12.9317 14.1794 12.4618 14.5199 12.1009 14.2747L8.67528 11.9524L5.24967 14.2747C4.88873 14.5199 4.41881 14.1794 4.5414 13.7571L5.69235 9.7799L2.40976 7.23964C2.06243 6.97404 2.24631 6.41559 2.68217 6.40197L6.82286 6.26577L8.2326 2.37025C8.37562 1.96163 8.9545 1.96163 9.10433 2.37025Z" fill="#FFD600"/>
<path d="M45.0629 2.37025L46.4727 6.26577L50.6134 6.40197C51.0492 6.41559 51.2331 6.96723 50.8858 7.23964L47.6168 9.7799L48.7678 13.7571C48.8904 14.1794 48.4204 14.5199 48.0595 14.2747L44.6339 11.9524L41.2083 14.2747C40.8473 14.5199 40.3774 14.1794 40.5 13.7571L41.651 9.7799L38.3684 7.23964C38.021 6.97404 38.2049 6.41559 38.6408 6.40197L42.7815 6.26577L44.1912 2.37025C44.3342 1.96163 44.9131 1.96163 45.0629 2.37025Z" fill="#FFD600"/>
<path d="M27.0836 2.37025L28.4934 6.26577L32.6341 6.40197C33.0699 6.41559 33.2538 6.96723 32.9065 7.23964L29.6375 9.7799L30.7885 13.7571C30.9111 14.1794 30.4411 14.5199 30.0802 14.2747L26.6546 11.9524L23.229 14.2747C22.868 14.5199 22.3981 14.1794 22.5207 13.7571L23.6717 9.7799L20.3891 7.23964C20.0417 6.97404 20.2256 6.41559 20.6615 6.40197L24.8022 6.26577L26.2119 2.37025C26.3549 1.96163 26.9338 1.96163 27.0836 2.37025Z" fill="#FFD600"/>
<path d="M63.0423 2.37025L64.452 6.26577L68.5927 6.40197C69.0285 6.41559 69.2124 6.96723 68.8651 7.23964L65.5961 9.7799L66.7471 13.7571C66.8697 14.1794 66.3998 14.5199 66.0388 14.2747L62.6132 11.9524L59.1876 14.2747C58.8267 14.5199 58.3567 14.1794 58.4793 13.7571L59.6303 9.7799L56.3477 7.23964C56.0004 6.97404 56.1842 6.41559 56.6201 6.40197L60.7608 6.26577L62.1705 2.37025C62.3135 1.96163 62.8924 1.96163 63.0423 2.37025Z" fill="#C4C4C4"/>
<path d="M81.0216 2.37025L82.4313 6.26577L86.572 6.40197C87.0079 6.41559 87.1917 6.96723 86.8444 7.23964L83.5754 9.7799L84.7264 13.7571C84.849 14.1794 84.3791 14.5199 84.0181 14.2747L80.5925 11.9524L77.1669 14.2747C76.806 14.5199 76.336 14.1794 76.4586 13.7571L77.6096 9.7799L74.327 7.23964C73.9797 6.97404 74.1635 6.41559 74.5994 6.40197L78.7401 6.26577L80.1498 2.37025C80.2929 1.96163 80.8717 1.96163 81.0216 2.37025Z" fill="#C4C4C4"/>
</svg>
